<?xml version="1.0" encoding="UTF-8" standalone="no"?>
<!DOCTYPE svg PUBLIC "-//W3C//DTD SVG 1.1//EN" "http://www.w3.org/Graphics/SVG/1.1/DTD/svg11.dtd">
<svg width="100%" height="100%" viewBox="0 0 1024 1024" version="1.1" xmlns="http://www.w3.org/2000/svg" xmlns:xlink="http://www.w3.org/1999/xlink" xml:space="preserve" xmlns:serif="http://www.serif.com/" style="fill-rule:evenodd;clip-rule:evenodd;stroke-linejoin:round;stroke-miterlimit:2;">
    <g transform="matrix(1,0,0,1,119.846,37.9259)">
        <g transform="matrix(7.25286,0,0,7.25286,-115.812,-829.823)">
            <path d="M74.508,209.401L69.9,209.5L58.35,209.25C57.483,209.15 56.7,209.4 56,210L55.9,210C55.233,210.567 54.833,211.283 54.7,212.15L53.6,219.65L36.85,217.1L36.3,208.65C36.167,207.717 35.85,206.9 35.35,206.2L35.15,206.2C34.517,205.5 33.8,205.05 33,204.85L22.6,202.5L22.6,201.05C22.6,195.917 21.35,191.567 18.85,188L18.8,188C16.567,184.733 13.9,182.833 10.8,182.3L10.8,169.35L10.7,169.35C7.967,165.783 5.25,161.817 2.55,157.45C5.617,152.35 9.633,147.1 14.6,141.7C18.633,143.767 22.65,146.083 26.65,148.65L29.65,146.1L32.8,143.7L35.65,141.7C34.917,135.967 34.45,129.783 34.25,123.15C41.15,119.717 49.167,117 58.3,115C61.067,119.667 63.817,125 66.55,131L69.85,130.85L70.1,130.85L73.35,131C76.117,125 78.9,119.667 81.7,115C90.833,117 98.8,119.717 105.6,123.15C105.433,129.783 105,135.967 104.3,141.7L107.1,143.7L110.3,146.1L113.2,148.65C117.2,146.083 121.217,143.767 125.25,141.7C130.283,147.1 134.3,152.35 137.3,157.45C134.667,161.817 131.967,165.783 129.2,169.35L129.1,169.35L129.1,182.3C126,182.833 123.317,184.733 121.05,188C119.93,189.599 119.06,191.355 118.442,193.268L105.824,193.268C106.872,192.692 107.797,192.003 108.6,191.2C109.733,190.067 110.6,188.8 111.2,187.4C111.867,185.867 112.2,184.283 112.2,182.65C112.2,181.017 111.867,179.467 111.2,178L109.65,175.25L108.6,174.2L108.25,173.7C107.25,172.867 106.083,172.15 104.75,171.55C103.317,170.883 101.783,170.55 100.15,170.55C98.55,170.55 97,170.883 95.5,171.55C94.167,172.15 93,172.867 92,173.7L91.6,174.2L90.75,175.25C89.983,176.083 89.417,177 89.05,178C88.417,179.467 88.1,181.017 88.1,182.65C88.1,184.283 88.417,185.867 89.05,187.4C89.65,188.8 90.5,190.067 91.6,191.2C92.478,192.003 93.432,192.692 94.46,193.268L87.685,193.268C80.412,193.268 74.508,199.173 74.508,206.445L74.508,209.401ZM51.8,182.65C51.8,181.017 51.5,179.467 50.9,178L49.2,175.25L48.35,174.2L47.9,173.7C46.9,172.867 45.767,172.15 44.5,171.55C43,170.883 41.417,170.55 39.75,170.55C38.117,170.55 36.583,170.883 35.15,171.55C33.883,172.15 32.7,172.867 31.6,173.7L31.2,174.2L30.35,175.25C29.683,176.083 29.15,177 28.75,178C28.05,179.467 27.7,181.017 27.7,182.65C27.7,184.283 28.05,185.867 28.75,187.4C29.283,188.8 30.1,190.067 31.2,191.2C32.3,192.267 33.617,193.133 35.15,193.8C36.583,194.333 38.117,194.6 39.75,194.6C41.417,194.6 43,194.333 44.5,193.8C45.9,193.133 47.183,192.267 48.35,191.2C49.417,190.067 50.267,188.8 50.9,187.4C51.5,185.867 51.8,184.283 51.8,182.65ZM69.9,185.15C68.533,185.15 67.383,185.7 66.45,186.8C65.45,187.9 64.95,189.217 64.95,190.75L64.95,197.35C64.95,198.883 65.45,200.183 66.45,201.25C67.383,202.35 68.533,202.9 69.9,202.9C71.267,202.9 72.433,202.35 73.4,201.25C74.367,200.183 74.85,198.883 74.85,197.35L74.85,190.75C74.85,189.217 74.367,187.9 73.4,186.8C72.433,185.7 71.267,185.15 69.9,185.15Z" style="fill:url(#_Linear1);"/>
        </g>
        <g transform="matrix(7.25286,0,0,7.25286,-115.812,-829.823)">
            <path d="M81.68,244.531C77.965,244.843 74.105,245 70.1,245L69.85,245C61.517,245 53.833,244.333 46.8,243C39.567,241.7 33.317,239.8 28.05,237.3C22.55,234.667 18.35,231.45 15.45,227.65C13.717,225.417 12.467,223.05 11.7,220.55L10.35,215.7L8.8,215.95C6.533,215.883 4.567,214.633 2.9,212.2L2.85,212.2C0.95,209.367 0,205.983 0,202.05C0,198.05 0.967,194.633 2.9,191.8L2.85,191.8C4.55,189.4 6.533,188.133 8.8,188L10.8,188.45C12.3,188.95 13.633,190.067 14.8,191.8C16.667,194.633 17.6,198.05 17.6,202.05L17.6,202.25C17.6,204.317 17.333,206.25 16.8,208.05L16.8,208.15L21.65,209.1L29.1,210.85L29.8,219.35C29.733,220.317 30.083,221.183 30.85,221.95C31.483,222.617 32.267,223.05 33.2,223.25L56.45,226.9C57.45,226.933 58.333,226.683 59.1,226.15C59.867,225.55 60.3,224.817 60.4,223.95L61.6,216.2L74.508,216.2L74.508,232.8C74.508,237.91 77.423,242.345 81.68,244.531ZM124.199,193.389C124.484,192.84 124.802,192.311 125.15,191.8L125.1,191.8C126.267,190.067 127.6,188.95 129.1,188.45C129.7,188.217 130.35,188.067 131.05,188C133.35,188.133 135.333,189.4 137,191.8C138.9,194.633 139.85,198.05 139.85,202.05C139.85,205.983 138.9,209.367 137,212.2C136.551,212.856 136.079,213.425 135.583,213.909L135.583,206.445C135.583,206.331 135.582,206.217 135.579,206.103C136.06,204.953 136.3,203.601 136.3,202.05C136.3,200.283 136,198.783 135.4,197.55C134.867,196.35 134.183,195.75 133.35,195.75C132.669,195.75 132.066,196.151 131.541,196.952C129.578,195.062 127.031,193.775 124.199,193.389ZM10.15,202.05C10.15,200.283 9.85,198.783 9.25,197.55C8.717,196.35 8.017,195.75 7.15,195.75C6.317,195.75 5.633,196.35 5.1,197.55C4.533,198.783 4.25,200.283 4.25,202.05C4.25,203.783 4.533,205.267 5.1,206.5C5.633,207.767 6.317,208.4 7.15,208.4C8.017,208.4 8.717,207.767 9.25,206.5C9.85,205.267 10.15,203.783 10.15,202.05Z" style="fill:rgb(28,119,219);"/>
        </g>
        <g transform="matrix(1.00383,0,0,0.938272,-144.885,-16.0507)">
            <path d="M991.953,741.452L991.953,925.772C991.953,976.636 953.354,1017.93 905.811,1017.93L682.147,1017.93C634.604,1017.93 596.006,976.636 596.006,925.772L596.006,741.452C596.006,690.587 634.604,649.292 682.147,649.292L905.811,649.292C953.354,649.292 991.953,690.587 991.953,741.452Z" style="fill:rgb(18,22,72);"/>
        </g>
        <g transform="matrix(1.05405,0,0,0.975001,-165.967,-30.2614)">
            <path d="M929.754,898.086L929.754,934.495C929.754,941.193 924.724,946.631 918.528,946.631L772.589,946.631C766.393,946.631 761.363,941.193 761.363,934.495L761.363,898.086C761.363,891.388 766.393,885.95 772.589,885.95L918.528,885.95C924.724,885.95 929.754,891.388 929.754,898.086Z" style="fill:white;"/>
        </g>
        <g transform="matrix(0.745329,-0.745329,0.68943,0.68943,-689.741,812.931)">
            <path d="M929.754,898.086L929.754,934.495C929.754,941.193 924.724,946.631 918.528,946.631L772.589,946.631C766.393,946.631 761.363,941.193 761.363,934.495L761.363,898.086C761.363,891.388 766.393,885.95 772.589,885.95L918.528,885.95C924.724,885.95 929.754,891.388 929.754,898.086Z" style="fill:white;"/>
        </g>
        <g transform="matrix(0.745329,0.745329,-0.68943,0.68943,573.701,-531.512)">
            <path d="M929.754,898.086L929.754,934.495C929.754,941.193 924.724,946.631 918.528,946.631L772.589,946.631C766.393,946.631 761.363,941.193 761.363,934.495L761.363,898.086C761.363,891.388 766.393,885.95 772.589,885.95L918.528,885.95C924.724,885.95 929.754,891.388 929.754,898.086Z" style="fill:white;"/>
        </g>
    </g>
    <defs>
        <linearGradient id="_Linear1" x1="0" y1="0" x2="1" y2="0" gradientUnits="userSpaceOnUse" gradientTransform="matrix(5.22312e-15,85.3,-85.3,5.22312e-15,62.1546,138.5)"><stop offset="0" style="stop-color:rgb(71,157,252);stop-opacity:1"/><stop offset="1" style="stop-color:rgb(28,119,219);stop-opacity:1"/></linearGradient>
    </defs>
</svg>
