<?xml version="1.0" encoding="UTF-8" standalone="no"?>
<!DOCTYPE svg PUBLIC "-//W3C//DTD SVG 1.1//EN" "http://www.w3.org/Graphics/SVG/1.1/DTD/svg11.dtd">
<svg width="100%" height="100%" viewBox="0 0 1024 414" version="1.1" xmlns="http://www.w3.org/2000/svg" xmlns:xlink="http://www.w3.org/1999/xlink" xml:space="preserve" xmlns:serif="http://www.serif.com/" style="fill-rule:evenodd;clip-rule:evenodd;stroke-linejoin:round;stroke-miterlimit:2;">
    <g transform="matrix(1.25473,0,0,1.25473,199.194,-14.8194)">
        <path d="M404.5,202.7C410.967,202.567 416.167,200.517 420.1,196.55C423.933,192.55 425.85,187.233 425.85,180.6C425.85,174 423.933,168.717 420.1,164.75C416.167,160.75 410.967,158.75 404.5,158.75L391.55,158.75L391.55,202.7L404.5,202.7M312.9,203.1C317.267,203.1 321.15,202.117 324.55,200.15C327.917,198.15 330.55,195.4 332.45,191.9C334.35,188.5 335.35,184.567 335.45,180.1C335.35,175.5 334.35,171.467 332.45,168C330.55,164.533 327.917,161.833 324.55,159.9C321.15,157.933 317.267,156.95 312.9,156.95C308.433,156.95 304.517,157.933 301.15,159.9C297.75,161.833 295.05,164.583 293.05,168.15C291.15,171.517 290.2,175.5 290.2,180.1C290.2,184.567 291.15,188.5 293.05,191.9C295.05,195.4 297.75,198.1 301.15,200C304.517,202.067 308.433,203.1 312.9,203.1M312.9,225.1C303.567,225.067 295.4,223.117 288.4,219.25C281.233,215.383 275.65,210.1 271.65,203.4C267.583,196.633 265.517,188.867 265.45,180.1C265.517,171.167 267.583,163.317 271.65,156.55C273.883,152.783 276.633,149.467 279.9,146.6C282.433,144.367 285.267,142.4 288.4,140.7C295.4,136.867 303.567,134.95 312.9,134.95C322.233,134.95 330.417,136.867 337.45,140.7C340.517,142.4 343.317,144.367 345.85,146.6C349.05,149.467 351.783,152.783 354.05,156.55C357.95,163.317 359.983,171.167 360.15,180.1C359.983,188.867 357.95,196.65 354.05,203.45C350.017,210.217 344.483,215.483 337.45,219.25C330.417,223.117 322.233,225.067 312.9,225.1M405.65,136.45C414.483,136.45 422.217,138.267 428.85,141.9C431.317,143.267 433.583,144.833 435.65,146.6C439.25,149.667 442.25,153.333 444.65,157.6C448.35,164.267 450.25,171.933 450.35,180.6C450.25,189.267 448.3,196.917 444.5,203.55C440.8,210.217 435.567,215.467 428.8,219.3C422.2,223.067 414.483,225 405.65,225.1L374.55,225.1C369.783,224.8 367.483,222.5 367.65,218.2L367.65,143.35C367.483,138.583 369.783,136.283 374.55,136.45L405.65,136.45M503.8,203.1C508.167,203.1 512.05,202.117 515.45,200.15C518.85,198.15 521.517,195.4 523.45,191.9C525.35,188.5 526.35,184.567 526.45,180.1C526.35,175.5 525.35,171.467 523.45,168C521.517,164.533 518.85,161.833 515.45,159.9C512.05,157.933 508.167,156.95 503.8,156.95C499.333,156.95 495.433,157.933 492.1,159.9C488.7,161.833 485.983,164.583 483.95,168.15C482.05,171.517 481.1,175.5 481.1,180.1C481.1,184.567 482.05,188.5 483.95,191.9C485.983,195.4 488.7,198.1 492.1,200C495.433,202.067 499.333,203.1 503.8,203.1M585,158.95L560.2,158.95C556.267,158.717 554.183,156.65 553.95,152.75L553.95,143.8C553.783,139.933 555.867,137.85 560.2,137.55L633.75,137.55C637.783,137.85 639.867,139.683 640,143.05L640,152.75C639.767,156.65 637.683,158.717 633.75,158.95L608.9,158.95L608.9,217.2C609,221.667 606.717,223.95 602.05,224.05L591.85,224.05C586.883,224.15 584.6,221.867 585,217.2L585,158.95M503.8,225.1C494.5,225.067 486.333,223.117 479.3,219.25C472.133,215.383 466.55,210.1 462.55,203.4C458.483,196.633 456.433,188.867 456.4,180.1C456.433,171.167 458.483,163.317 462.55,156.55C464.783,152.783 467.533,149.467 470.8,146.6C473.333,144.367 476.167,142.4 479.3,140.7C486.333,136.867 494.5,134.95 503.8,134.95C513.133,134.95 521.333,136.867 528.4,140.7C531.5,142.4 534.3,144.367 536.8,146.6C540.033,149.467 542.767,152.783 545,156.55C548.9,163.317 550.933,171.167 551.1,180.1C550.933,188.867 548.9,196.65 545,203.45C541,210.217 535.467,215.483 528.4,219.25C521.333,223.117 513.133,225.067 503.8,225.1M253.75,202.05C249.983,209.15 244.667,214.783 237.8,218.95C230.933,223.017 222.967,225.067 213.9,225.1C205.033,225.067 197.1,223.117 190.1,219.25C183.233,215.383 177.817,210.1 173.85,203.4C169.783,196.633 167.75,188.867 167.75,180.1C167.75,171.233 169.733,163.433 173.7,156.7C175.933,152.867 178.65,149.5 181.85,146.6C184.283,144.4 187,142.483 190,140.85C196.833,136.917 204.733,134.95 213.7,134.95C221.3,134.95 228.283,136.4 234.65,139.3C238.017,140.8 241.1,142.617 243.9,144.75C244.567,145.35 245.067,145.967 245.4,146.6C246.333,148.367 245.9,150.217 244.1,152.15L235.65,160.55C233.283,162.717 230.317,162.8 226.75,160.8L225.95,160.25C222.383,158.15 218.367,157.1 213.9,157.1C209.533,157.1 205.75,158.05 202.55,159.95C199.283,161.85 196.7,164.533 194.8,168C193.067,171.467 192.2,175.5 192.2,180.1C192.2,184.667 193.067,188.6 194.8,191.9C196.7,195.4 199.233,198.1 202.4,200C205.667,201.9 209.5,202.85 213.9,202.85C218.5,202.85 222.583,201.883 226.15,199.95C229.65,197.983 232.133,195.3 233.6,191.9L216.85,191.9C213.683,191.4 212.05,189.8 211.95,187.1L211.95,177.9C212.117,174.6 213.75,172.983 216.85,173.05L249,173.05C256.933,173.183 260.367,176.583 259.3,183.25C258.6,190.217 256.75,196.483 253.75,202.05" style="fill:none;fill-rule:nonzero;stroke:black;stroke-width:6.74px;"/>
        <path d="M404.5,202.7C410.967,202.567 416.167,200.517 420.1,196.55C423.933,192.55 425.85,187.233 425.85,180.6C425.85,174 423.933,168.717 420.1,164.75C416.167,160.75 410.967,158.75 404.5,158.75L391.55,158.75L391.55,202.7L404.5,202.7M312.9,203.1C317.267,203.1 321.15,202.117 324.55,200.15C327.917,198.15 330.55,195.4 332.45,191.9C334.35,188.5 335.35,184.567 335.45,180.1C335.35,175.5 334.35,171.467 332.45,168C330.55,164.533 327.917,161.833 324.55,159.9C321.15,157.933 317.267,156.95 312.9,156.95C308.433,156.95 304.517,157.933 301.15,159.9C297.75,161.833 295.05,164.583 293.05,168.15C291.15,171.517 290.2,175.5 290.2,180.1C290.2,184.567 291.15,188.5 293.05,191.9C295.05,195.4 297.75,198.1 301.15,200C304.517,202.067 308.433,203.1 312.9,203.1M312.9,225.1C303.567,225.067 295.4,223.117 288.4,219.25C281.233,215.383 275.65,210.1 271.65,203.4C267.583,196.633 265.517,188.867 265.45,180.1C265.517,171.167 267.583,163.317 271.65,156.55C273.883,152.783 276.633,149.467 279.9,146.6C282.433,144.367 285.267,142.4 288.4,140.7C295.4,136.867 303.567,134.95 312.9,134.95C322.233,134.95 330.417,136.867 337.45,140.7C340.517,142.4 343.317,144.367 345.85,146.6C349.05,149.467 351.783,152.783 354.05,156.55C357.95,163.317 359.983,171.167 360.15,180.1C359.983,188.867 357.95,196.65 354.05,203.45C350.017,210.217 344.483,215.483 337.45,219.25C330.417,223.117 322.233,225.067 312.9,225.1M405.65,136.45C414.483,136.45 422.217,138.267 428.85,141.9C431.317,143.267 433.583,144.833 435.65,146.6C439.25,149.667 442.25,153.333 444.65,157.6C448.35,164.267 450.25,171.933 450.35,180.6C450.25,189.267 448.3,196.917 444.5,203.55C440.8,210.217 435.567,215.467 428.8,219.3C422.2,223.067 414.483,225 405.65,225.1L374.55,225.1C369.783,224.8 367.483,222.5 367.65,218.2L367.65,143.35C367.483,138.583 369.783,136.283 374.55,136.45L405.65,136.45M503.8,203.1C508.167,203.1 512.05,202.117 515.45,200.15C518.85,198.15 521.517,195.4 523.45,191.9C525.35,188.5 526.35,184.567 526.45,180.1C526.35,175.5 525.35,171.467 523.45,168C521.517,164.533 518.85,161.833 515.45,159.9C512.05,157.933 508.167,156.95 503.8,156.95C499.333,156.95 495.433,157.933 492.1,159.9C488.7,161.833 485.983,164.583 483.95,168.15C482.05,171.517 481.1,175.5 481.1,180.1C481.1,184.567 482.05,188.5 483.95,191.9C485.983,195.4 488.7,198.1 492.1,200C495.433,202.067 499.333,203.1 503.8,203.1M585,158.95L560.2,158.95C556.267,158.717 554.183,156.65 553.95,152.75L553.95,143.8C553.783,139.933 555.867,137.85 560.2,137.55L633.75,137.55C637.783,137.85 639.867,139.683 640,143.05L640,152.75C639.767,156.65 637.683,158.717 633.75,158.95L608.9,158.95L608.9,217.2C609,221.667 606.717,223.95 602.05,224.05L591.85,224.05C586.883,224.15 584.6,221.867 585,217.2L585,158.95M503.8,225.1C494.5,225.067 486.333,223.117 479.3,219.25C472.133,215.383 466.55,210.1 462.55,203.4C458.483,196.633 456.433,188.867 456.4,180.1C456.433,171.167 458.483,163.317 462.55,156.55C464.783,152.783 467.533,149.467 470.8,146.6C473.333,144.367 476.167,142.4 479.3,140.7C486.333,136.867 494.5,134.95 503.8,134.95C513.133,134.95 521.333,136.867 528.4,140.7C531.5,142.4 534.3,144.367 536.8,146.6C540.033,149.467 542.767,152.783 545,156.55C548.9,163.317 550.933,171.167 551.1,180.1C550.933,188.867 548.9,196.65 545,203.45C541,210.217 535.467,215.483 528.4,219.25C521.333,223.117 513.133,225.067 503.8,225.1M253.75,202.05C249.983,209.15 244.667,214.783 237.8,218.95C230.933,223.017 222.967,225.067 213.9,225.1C205.033,225.067 197.1,223.117 190.1,219.25C183.233,215.383 177.817,210.1 173.85,203.4C169.783,196.633 167.75,188.867 167.75,180.1C167.75,171.233 169.733,163.433 173.7,156.7C175.933,152.867 178.65,149.5 181.85,146.6C184.283,144.4 187,142.483 190,140.85C196.833,136.917 204.733,134.95 213.7,134.95C221.3,134.95 228.283,136.4 234.65,139.3C238.017,140.8 241.1,142.617 243.9,144.75C244.567,145.35 245.067,145.967 245.4,146.6C246.333,148.367 245.9,150.217 244.1,152.15L235.65,160.55C233.283,162.717 230.317,162.8 226.75,160.8L225.95,160.25C222.383,158.15 218.367,157.1 213.9,157.1C209.533,157.1 205.75,158.05 202.55,159.95C199.283,161.85 196.7,164.533 194.8,168C193.067,171.467 192.2,175.5 192.2,180.1C192.2,184.667 193.067,188.6 194.8,191.9C196.7,195.4 199.233,198.1 202.4,200C205.667,201.9 209.5,202.85 213.9,202.85C218.5,202.85 222.583,201.883 226.15,199.95C229.65,197.983 232.133,195.3 233.6,191.9L216.85,191.9C213.683,191.4 212.05,189.8 211.95,187.1L211.95,177.9C212.117,174.6 213.75,172.983 216.85,173.05L249,173.05C256.933,173.183 260.367,176.583 259.3,183.25C258.6,190.217 256.75,196.483 253.75,202.05" style="fill:white;fill-rule:nonzero;"/>
    </g>
    <g transform="matrix(2.4505,0,0,2.4505,21.9932,-230.744)">
        <path d="M51.8,182.65C51.8,181.017 51.5,179.467 50.9,178L49.2,175.25L48.35,174.2L47.9,173.7C46.9,172.867 45.767,172.15 44.5,171.55C43,170.883 41.417,170.55 39.75,170.55C38.117,170.55 36.583,170.883 35.15,171.55C33.883,172.15 32.7,172.867 31.6,173.7L31.2,174.2L30.35,175.25C29.683,176.083 29.15,177 28.75,178C28.05,179.467 27.7,181.017 27.7,182.65C27.7,184.283 28.05,185.867 28.75,187.4C29.283,188.8 30.1,190.067 31.2,191.2C32.3,192.267 33.617,193.133 35.15,193.8C36.583,194.333 38.117,194.6 39.75,194.6C41.417,194.6 43,194.333 44.5,193.8C45.9,193.133 47.183,192.267 48.35,191.2C49.417,190.067 50.267,188.8 50.9,187.4C51.5,185.867 51.8,184.283 51.8,182.65M10.8,169.35L10.7,169.35C7.967,165.783 5.25,161.817 2.55,157.45C5.617,152.35 9.633,147.1 14.6,141.7C18.633,143.767 22.65,146.083 26.65,148.65L29.65,146.1L32.8,143.7L35.65,141.7C34.917,135.967 34.45,129.783 34.25,123.15C41.15,119.717 49.167,117 58.3,115C61.067,119.667 63.817,125 66.55,131L69.85,130.85L70.1,130.85L73.35,131C76.117,125 78.9,119.667 81.7,115C90.833,117 98.8,119.717 105.6,123.15C105.433,129.783 105,135.967 104.3,141.7L107.1,143.7L110.3,146.1L113.2,148.65C117.2,146.083 121.217,143.767 125.25,141.7C130.283,147.1 134.3,152.35 137.3,157.45C134.667,161.817 131.967,165.783 129.2,169.35L129.1,169.35L129.1,182.3C126,182.833 123.317,184.733 121.05,188C118.55,191.567 117.3,195.917 117.3,201.05L117.35,202.5L106.95,204.85L106.85,204.85C106.117,205.05 105.4,205.5 104.7,206.2L104.55,206.2C104.05,206.9 103.717,207.717 103.55,208.65L103,217.1L86.2,219.65L85.15,212.15C85.05,211.283 84.633,210.567 83.9,210L83.85,210C83.217,209.4 82.433,209.15 81.5,209.25L69.9,209.5L58.35,209.25C57.483,209.15 56.7,209.4 56,210L55.9,210C55.233,210.567 54.833,211.283 54.7,212.15L53.6,219.65L36.85,217.1L36.3,208.65C36.167,207.717 35.85,206.9 35.35,206.2L35.15,206.2C34.517,205.5 33.8,205.05 33,204.85L22.6,202.5L22.6,201.05C22.6,195.917 21.35,191.567 18.85,188L18.8,188C16.567,184.733 13.9,182.833 10.8,182.3L10.8,169.35M69.9,185.15C68.533,185.15 67.383,185.7 66.45,186.8C65.45,187.9 64.95,189.217 64.95,190.75L64.95,197.35C64.95,198.883 65.45,200.183 66.45,201.25C67.383,202.35 68.533,202.9 69.9,202.9C71.267,202.9 72.433,202.35 73.4,201.25C74.367,200.183 74.85,198.883 74.85,197.35L74.85,190.75C74.85,189.217 74.367,187.9 73.4,186.8C72.433,185.7 71.267,185.15 69.9,185.15M88.1,182.65C88.1,184.283 88.417,185.867 89.05,187.4C89.65,188.8 90.5,190.067 91.6,191.2C92.767,192.267 94.067,193.133 95.5,193.8C97,194.333 98.55,194.6 100.15,194.6C101.783,194.6 103.317,194.333 104.75,193.8C106.25,193.133 107.533,192.267 108.6,191.2C109.733,190.067 110.6,188.8 111.2,187.4C111.867,185.867 112.2,184.283 112.2,182.65C112.2,181.017 111.867,179.467 111.2,178L109.65,175.25L108.6,174.2L108.25,173.7C107.25,172.867 106.083,172.15 104.75,171.55C103.317,170.883 101.783,170.55 100.15,170.55C98.55,170.55 97,170.883 95.5,171.55C94.167,172.15 93,172.867 92,173.7L91.6,174.2L90.75,175.25C89.983,176.083 89.417,177 89.05,178C88.417,179.467 88.1,181.017 88.1,182.65" style="fill:url(#_Linear1);fill-rule:nonzero;"/>
    </g>
    <g transform="matrix(2.4505,0,0,2.4505,21.9932,-230.744)">
        <path d="M15.45,227.65C13.717,225.417 12.467,223.05 11.7,220.55L10.35,215.7L8.8,215.95C6.533,215.883 4.567,214.633 2.9,212.2L2.85,212.2C0.95,209.367 0,205.983 0,202.05C0,198.05 0.967,194.633 2.9,191.8L2.85,191.8C4.55,189.4 6.533,188.133 8.8,188L10.8,188.45C12.3,188.95 13.633,190.067 14.8,191.8C16.667,194.633 17.6,198.05 17.6,202.05L17.6,202.25C17.6,204.317 17.333,206.25 16.8,208.05L16.8,208.15L21.65,209.1L29.1,210.85L29.8,219.35C29.733,220.317 30.083,221.183 30.85,221.95C31.483,222.617 32.267,223.05 33.2,223.25L56.45,226.9C57.45,226.933 58.333,226.683 59.1,226.15C59.867,225.55 60.3,224.817 60.4,223.95L61.6,216.2L78.3,216.2L79.5,223.95C79.633,224.817 80.067,225.55 80.8,226.15C81.533,226.683 82.4,226.933 83.4,226.9L106.75,223.25C107.683,223.05 108.433,222.617 109,221.95L109.1,221.95C109.8,221.183 110.133,220.317 110.1,219.35L110.85,210.85L118.3,209.1L123.05,207.95C122.55,206.217 122.283,204.317 122.25,202.25L122.25,202.05C122.25,198.05 123.217,194.633 125.15,191.8L125.1,191.8C126.267,190.067 127.6,188.95 129.1,188.45C129.7,188.217 130.35,188.067 131.05,188C133.35,188.133 135.333,189.4 137,191.8C138.9,194.633 139.85,198.05 139.85,202.05C139.85,205.983 138.9,209.367 137,212.2C135.333,214.633 133.35,215.883 131.05,215.95L129.7,215.75L128.2,220.55C127.4,223.05 126.15,225.417 124.45,227.65C121.517,231.45 117.3,234.667 111.8,237.3C106.6,239.8 100.35,241.7 93.05,243C86.017,244.333 78.367,245 70.1,245L69.85,245C61.517,245 53.833,244.333 46.8,243C39.567,241.7 33.317,239.8 28.05,237.3C22.55,234.667 18.35,231.45 15.45,227.65M10.15,202.05C10.15,200.283 9.85,198.783 9.25,197.55C8.717,196.35 8.017,195.75 7.15,195.75C6.317,195.75 5.633,196.35 5.1,197.55C4.533,198.783 4.25,200.283 4.25,202.05C4.25,203.783 4.533,205.267 5.1,206.5C5.633,207.767 6.317,208.4 7.15,208.4C8.017,208.4 8.717,207.767 9.25,206.5C9.85,205.267 10.15,203.783 10.15,202.05M136.3,202.05C136.3,200.283 136,198.783 135.4,197.55C134.867,196.35 134.183,195.75 133.35,195.75C132.517,195.75 131.8,196.35 131.2,197.55C130.633,198.783 130.35,200.283 130.35,202.05C130.35,203.783 130.633,205.267 131.2,206.5C131.8,207.767 132.517,208.4 133.35,208.4C134.183,208.4 134.867,207.767 135.4,206.5C136,205.267 136.3,203.783 136.3,202.05" style="fill:rgb(28,119,219);fill-rule:nonzero;"/>
    </g>
    <defs>
        <linearGradient id="_Linear1" x1="0" y1="0" x2="1" y2="0" gradientUnits="userSpaceOnUse" gradientTransform="matrix(5.22312e-15,85.3,-85.3,5.22312e-15,62.1546,138.5)"><stop offset="0" style="stop-color:rgb(71,157,252);stop-opacity:1"/><stop offset="1" style="stop-color:rgb(28,119,219);stop-opacity:1"/></linearGradient>
    </defs>
</svg>
